# File produced by Open Asset Import Library (http://www.assimp.sf.net)
# (assimp v3.1.6393133)

mtllib AIr_propellors.mtl

# vertex positions
v 0.136919 1.723974 0.699452
v 0.136919 1.831514 0.538507
v 0.445622 1.831514 0.538507
v 0.445622 1.723974 0.699452
v 0.136919 1.992459 0.430966
v 0.445622 1.992459 0.430966
v 0.136919 2.182307 0.393203
v 0.445622 2.182307 0.393203
v 0.136919 2.372155 0.430966
v 0.445622 2.372155 0.430966
v 0.136919 2.533100 0.538506
v 0.445622 2.533100 0.538506
v 0.136919 2.640640 0.699451
v 0.445622 2.640640 0.699451
v 0.136919 2.678404 0.889299
v 0.445622 2.678404 0.889299
v 0.136919 2.640640 1.079147
v 0.445622 2.640640 1.079147
v 0.136919 2.533100 1.240093
v 0.445622 2.533100 1.240093
v 0.136919 2.372155 1.347633
v 0.445622 2.372155 1.347633
v 0.136919 2.182307 1.385396
v 0.445622 2.182307 1.385396
v 0.136919 1.992459 1.347633
v 0.445622 1.992459 1.347633
v 0.136919 1.831514 1.240093
v 0.445622 1.831514 1.240093
v 0.136919 1.723974 1.079147
v 0.445622 1.723974 1.079147
v 0.136919 1.686211 0.889299
v 0.445622 1.686211 0.889299
v 0.136919 2.182307 0.889299
v 0.445622 2.182307 0.889299
v 0.169954 3.016279 2.057720
v 0.190124 2.497598 2.281776
v 0.345217 2.502244 2.278569
v 0.325047 3.020925 2.054513
v 0.207223 1.932555 2.290187
v 0.362316 1.937201 2.286980
v 0.218648 1.407171 2.081673
v 0.373741 1.411816 2.078465
v 0.169954 2.193059 0.865302
v 0.325047 2.197705 0.862095
v 0.169954 2.323539 -0.579607
v 0.190124 2.866055 -0.421788
v 0.345217 2.860431 -0.422276
v 0.325047 2.317915 -0.580096
v 0.207223 3.306895 -0.068228
v 0.362316 3.301271 -0.068716
v 0.218648 3.578946 0.427247
v 0.373741 3.573322 0.426759
v 0.169954 2.198194 0.863943
v 0.325047 2.192570 0.863455
v 0.342703 0.828587 0.404007
v 0.328548 1.108904 -0.086767
v 0.481629 1.132727 -0.077576
v 0.495784 0.852410 0.413198
v 0.280288 1.552814 -0.433541
v 0.433369 1.576637 -0.424350
v 0.205271 2.092736 -0.583522
v 0.358351 2.116558 -0.574331
v 0.104530 2.183471 0.859103
v 0.257611 2.207293 0.868295
v 0.211966 1.272646 1.980933
v 0.285229 0.916026 1.548392
v 0.439064 0.931928 1.561337
v 0.365801 1.288548 1.993878
v 0.347338 0.752966 1.010627
v 0.501173 0.768868 1.023572
v 0.388838 0.808290 0.449508
v 0.542673 0.824192 0.462453
v 0.211966 2.187431 0.857226
v 0.365801 2.203333 0.870172
v 0.342703 3.575468 0.445599
v 0.328548 3.631698 1.007983
v 0.481629 3.606960 1.014309
v 0.495784 3.550730 0.451926
v 0.280288 3.471144 1.547919
v 0.433369 3.446406 1.554245
v 0.205271 3.118251 1.983207
v 0.358351 3.093512 1.989533
v 0.104530 2.207751 0.860536
v 0.257611 2.183013 0.866862

# UV coordinates
vt 0.375000 0.312500
vt 0.390625 0.312500
vt 0.390625 0.688440
vt 0.375000 0.688440
vt 0.406250 0.312500
vt 0.406250 0.688440
vt 0.421875 0.312500
vt 0.421875 0.688440
vt 0.437500 0.312500
vt 0.437500 0.688440
vt 0.453125 0.312500
vt 0.453125 0.688440
vt 0.468750 0.312500
vt 0.468750 0.688440
vt 0.484375 0.312500
vt 0.484375 0.688440
vt 0.500000 0.312500
vt 0.500000 0.688440
vt 0.515625 0.312500
vt 0.515625 0.688440
vt 0.531250 0.312500
vt 0.531250 0.688440
vt 0.546875 0.312500
vt 0.546875 0.688440
vt 0.562500 0.312500
vt 0.562500 0.688440
vt 0.578125 0.312500
vt 0.578125 0.688440
vt 0.593750 0.312500
vt 0.593750 0.688440
vt 0.609375 0.312500
vt 0.609375 0.688440
vt 0.625000 0.312500
vt 0.625000 0.688440
vt 0.610485 0.045765
vt 0.644356 0.096456
vt 0.500000 0.150000
vt 0.559794 0.011894
vt 0.500000 0.000000
vt 0.440206 0.011894
vt 0.389515 0.045765
vt 0.355644 0.096456
vt 0.343750 0.156250
vt 0.355644 0.216044
vt 0.389515 0.266735
vt 0.440206 0.300606
vt 0.559794 0.300606
vt 0.610485 0.266735
vt 0.644356 0.216044
vt 0.656250 0.156250
vt 0.644356 0.903544
vt 0.610485 0.954235
vt 0.500000 0.837500
vt 0.559794 0.988106
vt 0.500000 1.000000
vt 0.440206 0.988106
vt 0.389515 0.954235
vt 0.355644 0.903544
vt 0.343750 0.843750
vt 0.355644 0.783956
vt 0.389515 0.733265
vt 0.440206 0.699394
vt 0.500000 0.687500
vt 0.559794 0.699394
vt 0.610485 0.733265
vt 0.644356 0.783956
vt 0.656250 0.843750

# vertex normals
vn 0.000000 -0.923880 -0.382683
vn 0.000000 -0.707107 -0.707107
vn 0.000000 -0.382684 -0.923879
vn 0.000000 0.000000 -1.000000
vn 0.000000 0.382683 -0.923880
vn 0.000000 0.707107 -0.707107
vn 0.000000 0.923879 -0.382684
vn 0.000000 1.000000 0.000000
vn 0.000000 0.923880 0.382684
vn 0.000000 0.707107 0.707106
vn 0.000000 0.382684 0.923880
vn 0.000000 0.000000 1.000000
vn 0.000000 -0.382683 0.923880
vn 0.000000 -0.707107 0.707107
vn 0.000000 -0.923880 0.382684
vn 0.000000 -1.000000 0.000001
vn -1.000000 0.000000 0.000000
vn 1.000000 0.000000 0.000000
vn 0.007096 0.396779 0.917887
vn 0.013919 0.210174 0.977565
vn 0.025721 -0.179785 0.983370
vn 0.025721 -0.179784 0.983370
vn 0.030247 -0.368152 0.929273
vn -0.999338 -0.029934 0.020666
vn 0.999338 0.029934 -0.020666
vn 0.007096 0.279074 -0.960243
vn 0.013920 0.460917 -0.887334
vn 0.007096 0.279074 -0.960243
vn 0.025721 0.765158 -0.643328
vn 0.030245 0.875864 -0.481609
vn -0.999338 0.036238 0.003147
vn 0.999338 -0.036238 -0.003147
vn 0.162613 -0.854754 -0.492902
vn 0.154604 -0.741601 -0.652783
vn 0.121298 -0.435241 -0.892105
vn 0.121298 -0.435242 -0.892105
vn 0.097281 -0.253808 -0.962350
vn 0.097280 -0.253808 -0.962350
vn -0.986372 -0.153500 -0.059225
vn 0.986372 0.153499 0.059226
vn 0.986372 0.153500 0.059226
vn 0.986372 0.153500 0.059225
vn 0.025777 -0.769168 0.638527
vn 0.050562 -0.877447 0.477001
vn 0.093426 -0.989982 0.105868
vn 0.109857 -0.989912 -0.089476
vn -0.991233 -0.102464 -0.083414
vn 0.991233 0.102464 0.083414
vn 0.162611 0.982192 -0.094111
vn 0.154602 0.982722 0.101759
vn 0.121297 0.871918 0.474390
vn 0.121298 0.871918 0.474390
vn 0.097281 0.764841 0.636832
vn -0.986372 0.159399 -0.040764
vn 0.986372 -0.159399 0.040764

# Mesh
g pCylinder25
usemtl initialShadingGroup
f 4/4/1 1/1/1 2/2/2
f 2/2/2 3/3/2 4/4/1
f 3/3/2 2/2/2 5/5/3
f 5/5/3 6/6/3 3/3/2
f 6/6/3 5/5/3 7/7/4
f 7/7/4 8/8/4 6/6/3
f 8/8/4 7/7/4 9/9/5
f 9/9/5 10/10/5 8/8/4
f 10/10/5 9/9/5 11/11/6
f 11/11/6 12/12/6 10/10/5
f 12/12/6 11/11/6 13/13/7
f 13/13/7 14/14/7 12/12/6
f 14/14/7 13/13/7 15/15/8
f 15/15/8 16/16/8 14/14/7
f 16/16/8 15/15/8 17/17/9
f 17/17/9 18/18/9 16/16/8
f 18/18/9 17/17/9 19/19/10
f 19/19/10 20/20/10 18/18/9
f 20/20/10 19/19/10 21/21/11
f 21/21/11 22/22/11 20/20/10
f 22/22/11 21/21/11 23/23/12
f 23/23/12 24/24/12 22/22/11
f 24/24/12 23/23/12 25/25/13
f 25/25/13 26/26/13 24/24/12
f 26/26/13 25/25/13 27/27/14
f 27/27/14 28/28/14 26/26/13
f 28/28/14 27/27/14 29/29/15
f 29/29/15 30/30/15 28/28/14
f 30/30/15 29/29/15 31/31/16
f 31/31/16 32/32/16 30/30/15
f 32/32/16 31/31/16 1/33/1
f 1/33/1 4/34/1 32/32/16
f 2/35/17 1/36/17 33/37/17
f 5/38/17 2/35/17 33/37/17
f 7/39/17 5/38/17 33/37/17
f 9/40/17 7/39/17 33/37/17
f 11/41/17 9/40/17 33/37/17
f 13/42/17 11/41/17 33/37/17
f 15/43/17 13/42/17 33/37/17
f 17/44/17 15/43/17 33/37/17
f 19/45/17 17/44/17 33/37/17
f 21/46/17 19/45/17 33/37/17
f 23/17/17 21/46/17 33/37/17
f 25/47/17 23/17/17 33/37/17
f 27/48/17 25/47/17 33/37/17
f 29/49/17 27/48/17 33/37/17
f 31/50/17 29/49/17 33/37/17
f 1/36/17 31/50/17 33/37/17
f 4/51/18 3/52/18 34/53/18
f 3/52/18 6/54/18 34/53/18
f 6/54/18 8/55/18 34/53/18
f 8/55/18 10/56/18 34/53/18
f 10/56/18 12/57/18 34/53/18
f 12/57/18 14/58/18 34/53/18
f 14/58/18 16/59/18 34/53/18
f 16/59/18 18/60/18 34/53/18
f 18/60/18 20/61/18 34/53/18
f 20/61/18 22/62/18 34/53/18
f 22/62/18 24/63/18 34/53/18
f 24/63/18 26/64/18 34/53/18
f 26/64/18 28/65/18 34/53/18
f 28/65/18 30/66/18 34/53/18
f 30/66/18 32/67/18 34/53/18
f 32/67/18 4/51/18 34/53/18
f 38/16/19 35/15/19 36/17/20
f 36/17/20 37/18/20 38/16/19
f 37/18/20 36/17/20 39/19/21
f 39/19/21 40/20/22 37/18/20
f 40/20/22 39/19/21 41/21/23
f 41/21/23 42/22/23 40/20/22
f 36/44/24 35/43/24 43/37/24
f 39/45/24 36/44/24 43/37/24
f 41/46/24 39/45/24 43/37/24
f 38/59/25 37/60/25 44/53/25
f 37/60/25 40/61/25 44/53/25
f 40/61/25 42/62/25 44/53/25
f 48/16/28 45/15/26 46/17/27
f 46/17/27 47/18/27 48/16/28
f 47/18/27 46/17/27 49/19/29
f 49/19/29 50/20/29 47/18/27
f 50/20/29 49/19/29 51/21/30
f 51/21/30 52/22/30 50/20/29
f 46/44/31 45/43/31 53/37/31
f 49/45/31 46/44/31 53/37/31
f 51/46/31 49/45/31 53/37/31
f 48/59/32 47/60/32 54/53/32
f 47/60/32 50/61/32 54/53/32
f 50/61/32 52/62/32 54/53/32
f 58/16/33 55/15/33 56/17/34
f 56/17/34 57/18/34 58/16/33
f 57/18/34 56/17/34 59/19/35
f 59/19/35 60/20/36 57/18/34
f 60/20/36 59/19/35 61/21/37
f 61/21/37 62/22/38 60/20/36
f 56/44/39 55/43/39 63/37/39
f 59/45/39 56/44/39 63/37/39
f 61/46/39 59/45/39 63/37/39
f 58/59/40 57/60/41 64/53/41
f 57/60/41 60/61/42 64/53/41
f 60/61/42 62/62/42 64/53/41
f 68/16/43 65/15/43 66/17/44
f 66/17/44 67/18/44 68/16/43
f 67/18/44 66/17/44 69/19/45
f 69/19/45 70/20/45 67/18/44
f 70/20/45 69/19/45 71/21/46
f 71/21/46 72/22/46 70/20/45
f 66/44/47 65/43/47 73/37/47
f 69/45/47 66/44/47 73/37/47
f 71/46/47 69/45/47 73/37/47
f 68/59/48 67/60/48 74/53/48
f 67/60/48 70/61/48 74/53/48
f 70/61/48 72/62/48 74/53/48
f 78/16/49 75/15/49 76/17/50
f 76/17/50 77/18/50 78/16/49
f 77/18/50 76/17/50 79/19/51
f 79/19/51 80/20/52 77/18/50
f 80/20/52 79/19/51 81/21/53
f 81/21/53 82/22/53 80/20/52
f 76/44/54 75/43/54 83/37/54
f 79/45/54 76/44/54 83/37/54
f 81/46/54 79/45/54 83/37/54
f 78/59/55 77/60/55 84/53/55
f 77/60/55 80/61/55 84/53/55
f 80/61/55 82/62/55 84/53/55
